<svg width="128" height="128" viewBox="0 0 128 128" fill="none" xmlns="http://www.w3.org/2000/svg">
<path fill-rule="evenodd" clip-rule="evenodd" d="M117.21 99.5744C124.025 89.4011 128 77.1647 128 64C128 28.6538 99.3462 0 64 0C48.9557 0 35.1238 5.19087 24.1976 13.8793C37.5333 16.2944 47.5642 21.6549 55.1754 29.4766C64.9656 39.5375 69.486 52.5999 73.0694 62.9551L73.3044 63.634C77.2554 75.0413 80.3054 83.4124 86.0832 89.4799C91.1662 94.8177 99.6376 99.5324 117.21 99.5744ZM108.813 109.693C94.148 108.337 84.8862 103.444 78.4818 96.7183C70.8955 88.7516 67.2146 78.1236 63.4509 67.2567L63.386 67.0692C59.6243 56.2083 55.7573 45.1254 47.6528 36.7968C40.6188 29.5683 30.4733 24.4838 14.6678 23.2255C14.2291 23.7558 13.7987 24.2932 13.3769 24.8377C29.5352 25.9105 39.5825 30.944 46.4329 37.9838C54.2291 45.9957 57.9933 56.7 61.7776 67.6263L61.9023 67.9863L61.9023 67.9864C65.6215 78.7261 69.4066 89.6563 77.2492 97.8921C83.7703 104.74 93.0269 109.665 107.182 111.237C107.735 110.732 108.278 110.217 108.813 109.693ZM95.4226 119.768C86.1407 125.009 75.4196 128 64 128C28.6538 128 0 99.3462 0 64C0 53.6093 2.47618 43.797 6.87063 35.121C24.885 35.1516 33.6597 39.9083 38.9102 45.3041C44.8055 51.3623 47.9354 59.7326 51.8593 71.0616C51.9823 71.4168 52.1063 71.7756 52.2314 72.1377L52.2386 72.1584C55.7686 82.3735 60.2066 95.2159 69.6479 105.131C76.2027 112.014 84.5976 117.004 95.4226 119.768Z" fill="#97C710"/>
</svg>
