<svg width="64" height="64" viewBox="0 0 64 64" fill="none" xmlns="http://www.w3.org/2000/svg">
<path fill-rule="evenodd" clip-rule="evenodd" d="M58.6051 49.7872C62.0126 44.7006 64 38.5824 64 32C64 14.3269 49.6731 0 32 0C24.4778 0 17.5619 2.59543 12.0988 6.93963C18.7666 8.14719 23.7821 10.8274 27.5877 14.7383C32.4828 19.7688 34.743 26.3 36.5347 31.4775L36.6522 31.817C38.6277 37.5206 40.1527 41.7062 43.0416 44.7399C45.5831 47.4088 49.8188 49.7662 58.6051 49.7872ZM54.4063 54.8464C47.074 54.1685 42.4431 51.7219 39.2409 48.3592C35.4477 44.3758 33.6073 39.0618 31.7255 33.6283L31.693 33.5346C29.8121 28.1041 27.8786 22.5627 23.8264 18.3984C20.3094 14.7841 15.2366 12.2419 7.33392 11.6127C7.11453 11.8779 6.89933 12.1466 6.68843 12.4188C14.7676 12.9553 19.7912 15.472 23.2164 18.9919C27.1146 22.9978 28.9966 28.35 30.8888 33.8131L30.9512 33.9932L30.9512 33.9932C32.8107 39.363 34.7033 44.8281 38.6246 48.9461C41.8852 52.3701 46.5134 54.8325 53.591 55.6187C53.8673 55.366 54.1391 55.1085 54.4063 54.8464ZM47.7113 59.884C43.0703 62.5046 37.7098 64 32 64C14.3269 64 0 49.6731 0 32C0 26.8047 1.23809 21.8985 3.43531 17.5605C12.4425 17.5758 16.8298 19.9541 19.4551 22.652C22.4028 25.6812 23.9677 29.8663 25.9296 35.5308L26.1157 36.0689L26.1193 36.0792C27.8843 41.1867 30.1033 47.608 34.8239 52.5653C38.1014 56.007 42.2988 58.5018 47.7113 59.884Z" fill="#97C710"/>
</svg>
