<svg width="256" height="256" viewBox="0 0 256 256" fill="none" xmlns="http://www.w3.org/2000/svg">
<path fill-rule="evenodd" clip-rule="evenodd" d="M234.42 199.149C248.05 178.802 256 154.329 256 128C256 57.3076 198.692 0 128 0C97.9114 0 70.2476 10.3817 48.3952 27.7585C75.0665 32.5888 95.1284 43.3097 110.351 58.9532C129.931 79.0751 138.972 105.2 146.139 125.91L146.609 127.268C154.511 150.083 160.611 166.825 172.166 178.96C182.332 189.635 199.275 199.065 234.42 199.149ZM217.625 219.385C188.296 216.674 169.772 206.888 156.964 193.437C141.791 177.503 134.429 156.247 126.902 134.513L126.772 134.138C119.249 112.417 111.515 90.2508 95.3055 73.5936C81.2376 59.1366 60.9465 48.9676 29.3357 46.451C28.4581 47.5115 27.5973 48.5865 26.7537 49.6754C59.0703 51.821 79.1649 61.8879 92.8658 75.9677C108.458 91.9913 115.987 113.4 123.555 135.253L123.805 135.973L123.805 135.973C131.243 157.452 138.813 179.313 154.498 195.784C167.541 209.48 186.054 219.33 214.364 222.475C215.469 221.464 216.556 220.434 217.625 219.385ZM190.845 239.536C172.281 250.018 150.839 256 128 256C57.3076 256 0 198.692 0 128C0 107.219 4.95235 87.5941 13.7413 70.2419C49.77 70.3032 67.3194 79.8166 77.8205 90.6081C89.611 102.725 95.8709 119.465 103.719 142.123C103.965 142.834 104.213 143.551 104.463 144.275L104.477 144.317C111.537 164.747 120.413 190.432 139.296 210.261C152.405 224.028 169.195 234.007 190.845 239.536Z" fill="#97C710"/>
</svg>
