<svg width="512" height="512" viewBox="0 0 512 512" fill="none" xmlns="http://www.w3.org/2000/svg">
<path fill-rule="evenodd" clip-rule="evenodd" d="M468.841 398.297C496.101 357.604 512 308.659 512 256C512 114.615 397.385 0 256 0C195.823 0 140.496 20.7633 96.7911 55.5165C150.132 65.1773 190.255 86.619 220.7 117.905C259.861 158.149 277.942 210.399 292.276 251.819L292.87 253.537L293.216 254.535C309.02 300.164 321.22 333.648 344.331 357.919C364.663 379.27 398.549 398.129 468.841 398.297ZM435.251 438.77C376.591 433.348 339.543 413.775 313.925 386.872C283.58 355.005 268.856 312.494 253.802 269.026L253.542 268.276C238.495 224.832 223.027 180.501 190.609 147.186C162.474 118.273 121.892 97.9348 58.672 92.9012C56.9169 95.0223 55.1953 97.1721 53.508 99.3499C118.14 103.642 158.328 123.775 185.73 151.934C216.914 183.982 231.971 226.799 247.109 270.504L247.607 271.944L247.607 271.945C262.484 314.903 277.624 358.624 308.995 391.567C335.08 418.96 372.107 438.66 428.728 444.949C430.939 442.927 433.113 440.867 435.251 438.77ZM381.691 479.072C344.563 500.036 301.679 512 256 512C114.615 512 0 397.385 0 256C0 214.437 9.90489 175.187 27.483 140.483C99.5388 140.606 134.637 159.632 155.639 181.215C179.22 205.448 191.74 238.93 207.435 284.245C207.927 285.666 208.423 287.102 208.924 288.55L208.952 288.633C223.072 329.493 240.824 380.863 278.589 420.521C304.809 448.056 338.39 468.014 381.691 479.072Z" fill="#97C710"/>
</svg>
