<svg width="16" height="16" viewBox="0 0 16 16" fill="none" xmlns="http://www.w3.org/2000/svg">
<path fill-rule="evenodd" clip-rule="evenodd" d="M14.6513 12.4468C15.5031 11.1751 16 9.64559 16 8C16 3.58172 12.4183 0 8 0C6.11938 0 4.39032 0.648916 3.02452 1.73505C4.69108 2.03701 5.9447 2.70702 6.89595 3.68457C8.11973 4.94219 8.68477 6.57499 9.1327 7.86938L9.16208 7.95424C9.65595 9.38016 10.0372 10.4265 10.7594 11.185C11.3949 11.8523 12.454 12.4417 14.6513 12.4468ZM13.6015 13.7117C11.7679 13.5423 10.6099 12.9306 9.80925 12.0898C8.86096 11.0939 8.40085 9.76546 7.93039 8.40708L7.92228 8.38365C7.45206 7.02603 6.96868 5.64067 5.95562 4.5996C5.07651 3.69618 3.80857 3.06067 1.83342 2.90326C1.77858 2.96954 1.72478 3.03672 1.67206 3.10477C3.6913 3.23901 4.94696 3.86813 5.80313 4.74798C6.77766 5.74946 7.24818 7.0875 7.72123 8.45329L7.73681 8.49829L7.73682 8.4983C8.20171 9.84076 8.67484 11.207 9.65517 12.2365C10.4704 13.0927 11.6278 13.7083 13.3976 13.9048C13.4667 13.8416 13.5347 13.7772 13.6015 13.7117ZM11.9275 14.9712C10.7673 15.6262 9.42733 16 8 16C3.58172 16 0 12.4183 0 8C0 6.70117 0.309521 5.47463 0.858827 4.39012C3.10996 4.39413 4.20658 4.98863 4.8628 5.66301C5.59971 6.42029 5.99095 7.46658 6.48143 8.8827L6.52795 9.01722L6.52884 9.0198C6.9701 10.2967 7.52484 11.902 8.705 13.1413C9.5245 14.0019 10.5741 14.6256 11.9275 14.9712Z" fill="#97C710"/>
</svg>
