<svg width="32" height="32" viewBox="0 0 32 32" fill="none" xmlns="http://www.w3.org/2000/svg">
<path fill-rule="evenodd" clip-rule="evenodd" d="M29.3025 24.8936C31.0063 22.3503 32 19.2912 32 16C32 7.16344 24.8366 0 16 0C12.2389 0 8.78095 1.29772 6.0494 3.46981C9.38332 4.0736 11.891 5.41372 13.7939 7.36915C16.2414 9.88439 17.3715 13.15 18.2674 15.7388L18.3261 15.9085C19.3138 18.7603 20.0763 20.8531 21.5208 22.37C22.7915 23.7044 24.9094 24.8831 29.3025 24.8936ZM27.2032 27.4232C23.537 27.0843 21.2216 25.8609 19.6205 24.1796C17.7239 22.1879 16.8037 19.5309 15.8627 16.8142L15.8465 16.7673C14.9061 14.0521 13.9393 11.2813 11.9132 9.1992C10.1547 7.39207 7.61832 6.12095 3.66696 5.80637C3.55726 5.93894 3.44967 6.07331 3.34421 6.20942C7.38379 6.47763 9.89561 7.73599 11.6082 9.49596C13.5573 11.4989 14.4983 14.175 15.4444 16.9066L15.4756 16.9966L15.4756 16.9966C16.4054 19.6815 17.3516 22.4141 19.3123 24.473C20.9426 26.185 23.2567 27.4163 26.7955 27.8093C26.9336 27.683 27.0695 27.5543 27.2032 27.4232ZM23.8556 29.942C21.5352 31.2523 18.8549 32 16 32C7.16344 32 0 24.8366 0 16C0 13.4023 0.619044 10.9493 1.71766 8.78024C6.22125 8.78791 8.41492 9.97707 9.72756 11.326C11.2014 12.8406 11.9839 14.9332 12.9648 17.7654L13.0579 18.0344L13.0596 18.0396C13.9421 20.5934 15.0516 23.804 17.412 26.2826C19.0507 28.0035 21.1494 29.2509 23.8556 29.942Z" fill="#97C710"/>
</svg>
