<svg width="1024" height="1024" viewBox="0 0 1024 1024" fill="none" xmlns="http://www.w3.org/2000/svg">
<path fill-rule="evenodd" clip-rule="evenodd" d="M937.682 796.593C992.202 715.207 1024 617.317 1024 512C1024 229.23 794.77 0 512 0C391.646 0 280.992 41.5264 193.583 111.033C300.266 130.354 380.512 173.238 441.401 235.811C519.723 316.298 555.885 420.798 584.553 503.639L585.321 505.858C585.693 506.932 586.064 508.003 586.433 509.07C618.041 600.328 642.441 667.297 688.663 715.837C729.328 758.54 797.1 796.258 937.682 796.593ZM870.503 877.54C753.184 866.695 679.088 827.549 627.853 773.745C567.162 710.011 537.715 624.987 507.605 538.051L507.086 536.552C476.992 449.664 446.056 361.001 381.22 294.372C324.949 236.545 243.786 195.869 117.344 185.802C113.834 190.044 110.391 194.344 107.016 198.7C236.281 207.283 316.658 247.55 371.461 303.869C433.831 367.963 463.944 453.598 494.219 541.008L495.216 543.888L495.217 543.889C524.969 629.807 555.25 717.248 617.991 783.135C670.161 837.92 744.215 877.319 857.457 889.898C861.878 885.854 866.227 881.735 870.503 877.54ZM763.382 958.143C689.127 1000.07 603.358 1024 512 1024C229.23 1024 0 794.77 0 512C0 428.874 19.8098 350.375 54.966 280.966C199.079 281.212 269.276 319.265 311.28 362.43C358.442 410.897 383.481 477.859 414.872 568.491C415.831 571.259 416.797 574.054 417.771 576.875L417.832 577.05L417.849 577.1L417.906 577.265C446.146 658.986 481.65 761.725 557.181 841.042C609.62 896.111 676.78 936.027 763.382 958.143Z" fill="#97C710"/>
</svg>
